<svg xmlns="http://www.w3.org/2000/svg" width="64" height="64" viewBox="0 0 64 64">
  <defs>
    <linearGradient id="bagGradient" x1="0%" y1="0%" x2="100%" y2="100%">
      <stop offset="0%" style="stop-color:#4285F4;" />
      <stop offset="100%" style="stop-color:#2962FF;" />
    </linearGradient>
    <linearGradient id="bagFillGradient" x1="0%" y1="0%" x2="100%" y2="100%">
      <stop offset="0%" style="stop-color:#E3F2FD;" />
      <stop offset="100%" style="stop-color:#BBDEFB;" />
    </linearGradient>
    <linearGradient id="coinGradient" x1="0%" y1="0%" x2="100%" y2="100%">
      <stop offset="0%" style="stop-color:#E3F2FD;" />
      <stop offset="100%" style="stop-color:#BBDEFB;" />
    </linearGradient>
  </defs>
  
  <!-- Coins stack -->
  <g transform="translate(15, 32) scale(0.8)">
    <!-- Bottom coin -->
    <ellipse cx="0" cy="42" rx="12" ry="6" fill="#4285F4" />
    <ellipse cx="0" cy="42" rx="10" ry="4" fill="#E3F2FD" />
    
    <!-- Coin cylinder 1 -->
    <rect x="-10" y="18" width="20" height="24" fill="#4285F4" />
    <rect x="-8" y="18" width="16" height="24" fill="#E3F2FD" />
    
    <!-- Coin top 1 -->
    <ellipse cx="0" cy="18" rx="12" ry="6" fill="#4285F4" />
    <ellipse cx="0" cy="18" rx="10" ry="4" fill="#E3F2FD" />
    
    <!-- Coin cylinder 2 -->
    <rect x="-10" y="-6" width="20" height="24" fill="#4285F4" />
    <rect x="-8" y="-6" width="16" height="24" fill="#E3F2FD" />
    
    <!-- Coin top 2 -->
    <ellipse cx="0" cy="-6" rx="12" ry="6" fill="#4285F4" />
    <ellipse cx="0" cy="-6" rx="10" ry="4" fill="#E3F2FD" />
  </g>
  
  <!-- Money Bag -->
  <g transform="translate(40, 32) scale(0.9)">
    <!-- Bag body -->
    <path d="M0,0 C15,0 15,30 0,30 C-15,30 -15,0 0,0 Z" fill="url(#bagGradient)" stroke="#4285F4" stroke-width="2" />
    <path d="M0,2 C13,2 13,28 0,28 C-13,28 -13,2 0,2 Z" fill="url(#bagFillGradient)" />
    
    <!-- Bag tie -->
    <path d="M-8,-5 C-5,-8 5,-8 8,-5 C5,0 -5,0 -8,-5 Z" fill="#4285F4" stroke="#4285F4" stroke-width="1" />
    <path d="M-6,-4 C-3,-6 3,-6 6,-4 C3,-1 -3,-1 -6,-4 Z" fill="#BBDEFB" />
    
    <!-- Bag strings -->
    <path d="M-8,-5 C-12,-10 -12,-15 -5,-15" fill="none" stroke="#4285F4" stroke-width="2" />
    <path d="M8,-5 C12,-10 12,-15 5,-15" fill="none" stroke="#4285F4" stroke-width="2" />
    
    <!-- Dollar sign -->
    <text x="0" y="12" font-family="Arial, sans-serif" font-size="18" font-weight="bold" fill="#4285F4" text-anchor="middle">$</text>
  </g>
</svg> 